  0
SECTION
  2
BLOCKS
  0
ENDSEC
  0
SECTION
  2
ENTITIES
  0
LINE
  8
0
 10
-30.1733
 20
-39.544
 11
-30.1432
 21
-39.543
  0
LINE
  8
0
 10
-30.1432
 20
-39.543
 11
-29.8076
 21
-39.5197
  0
LINE
  8
0
 10
-29.8076
 20
-39.5197
 11
-29.6126
 21
-39.4976
  0
LINE
  8
0
 10
-29.6126
 20
-39.4976
 11
-29.5025
 21
-39.4832
  0
LINE
  8
0
 10
-29.5025
 20
-39.4832
 11
-29.217
 21
-39.4394
  0
LINE
  8
0
 10
-29.217
 20
-39.4394
 11
-29.0161
 21
-39.4033
  0
LINE
  8
0
 10
-29.0161
 20
-39.4033
 11
-28.6876
 21
-39.3374
  0
LINE
  8
0
 10
-28.6876
 20
-39.3374
 11
-28.3836
 21
-39.2697
  0
LINE
  8
0
 10
-28.3836
 20
-39.2697
 11
-28.1938
 21
-39.2251
  0
LINE
  8
0
 10
-28.1938
 20
-39.2251
 11
-27.7153
 21
-39.1054
  0
LINE
  8
0
 10
-27.7153
 20
-39.1054
 11
-27.2671
 21
-38.9874
  0
LINE
  8
0
 10
-27.2671
 20
-38.9874
 11
-27.0118
 21
-38.9183
  0
LINE
  8
0
 10
-27.0118
 20
-38.9183
 11
-26.2732
 21
-38.715
  0
LINE
  8
0
 10
-26.2732
 20
-38.715
 11
-25.5
 21
-38.5
  0
LINE
  8
0
 10
-25.5
 20
-38.5
 11
-3.48708
 21
-32.3704
  0
LINE
  8
0
 10
-3.48708
 20
-32.3704
 11
-2.31888
 21
-32.0693
  0
LINE
  8
0
 10
-2.31888
 20
-32.0693
 11
-2.0889
 21
-32.0159
  0
LINE
  8
0
 10
-2.0889
 20
-32.0159
 11
-0.998627
 21
-31.7824
  0
LINE
  8
0
 10
-0.998627
 20
-31.7824
 11
-0.720032
 21
-31.7303
  0
LINE
  8
0
 10
-0.720032
 20
-31.7303
 11
-0.392838
 21
-31.6723
  0
LINE
  8
0
 10
-0.392838
 20
-31.6723
 11
-0.0732574
 21
-31.6221
  0
LINE
  8
0
 10
-0.0732574
 20
-31.6221
 11
0.261932
 21
-31.5734
  0
LINE
  8
0
 10
0.261932
 20
-31.5734
 11
0.562469
 21
-31.5366
  0
LINE
  8
0
 10
0.562469
 20
-31.5366
 11
0.921066
 21
-31.4982
  0
LINE
  8
0
 10
0.921066
 20
-31.4982
 11
1.19563
 21
-31.4751
  0
LINE
  8
0
 10
1.19563
 20
-31.4751
 11
1.59337
 21
-31.4497
  0
LINE
  8
0
 10
1.59337
 20
-31.4497
 11
1.83232
 21
-31.4391
  0
LINE
  8
0
 10
1.83232
 20
-31.4391
 11
2.31285
 21
-31.4303
  0
LINE
  8
0
 10
2.31285
 20
-31.4303
 11
2.48318
 21
-31.4292
  0
LINE
  8
0
 10
2.48318
 20
-31.4292
 11
3.15375
 21
-31.446
  0
LINE
  8
0
 10
3.15375
 20
-31.446
 11
3.28339
 21
-31.4533
  0
LINE
  8
0
 10
3.28339
 20
-31.4533
 11
3.83272
 21
-31.488
  0
LINE
  8
0
 10
3.83272
 20
-31.488
 11
4.08113
 21
-31.5083
  0
LINE
  8
0
 10
4.08113
 20
-31.5083
 11
4.623
 21
-31.5619
  0
LINE
  8
0
 10
4.623
 20
-31.5619
 11
4.7813
 21
-31.5789
  0
LINE
  8
0
 10
4.7813
 20
-31.5789
 11
5.48804
 21
-31.6761
  0
LINE
  8
0
 10
5.48804
 20
-31.6761
 11
5.67232
 21
-31.7075
  0
LINE
  8
0
 10
5.67232
 20
-31.7075
 11
6.23062
 21
-31.8126
  0
LINE
  8
0
 10
6.23062
 20
-31.8126
 11
6.50659
 21
-31.8714
  0
LINE
  8
0
 10
6.50659
 20
-31.8714
 11
6.64983
 21
-31.905
  0
LINE
  8
0
 10
6.64983
 20
-31.905
 11
7.13213
 21
-32.031
  0
LINE
  8
0
 10
7.13213
 20
-32.031
 11
7.1757
 21
-32.0427
  0
LINE
  8
0
 10
7.1757
 20
-32.0427
 11
7.68909
 21
-32.2034
  0
LINE
  8
0
 10
7.68909
 20
-32.2034
 11
7.85645
 21
-32.2614
  0
LINE
  8
0
 10
7.85645
 20
-32.2614
 11
8.20953
 21
-32.3894
  0
LINE
  8
0
 10
8.20953
 20
-32.3894
 11
8.37384
 21
-32.4521
  0
LINE
  8
0
 10
8.37384
 20
-32.4521
 11
9.40446
 21
-32.8774
  0
LINE
  8
0
 10
9.40446
 20
-32.8774
 11
9.5054
 21
-32.9203
  0
LINE
  8
0
 10
9.5054
 20
-32.9203
 11
9.96698
 21
-33.1152
  0
LINE
  8
0
 10
9.96698
 20
-33.1152
 11
10.0495
 21
-33.1492
  0
LINE
  8
0
 10
10.0495
 20
-33.1492
 11
10.5104
 21
-33.3306
  0
LINE
  8
0
 10
10.5104
 20
-33.3306
 11
10.6281
 21
-33.3739
  0
LINE
  8
0
 10
10.6281
 20
-33.3739
 11
10.9332
 21
-33.4787
  0
LINE
  8
0
 10
10.9332
 20
-33.4787
 11
11.0498
 21
-33.5155
  0
LINE
  8
0
 10
11.0498
 20
-33.5155
 11
11.252
 21
-33.5746
  0
LINE
  8
0
 10
11.252
 20
-33.5746
 11
11.5818
 21
-33.655
  0
LINE
  8
0
 10
11.5818
 20
-33.655
 11
11.593
 21
-33.6575
  0
LINE
  8
0
 10
11.593
 20
-33.6575
 11
11.843
 21
-33.7033
  0
LINE
  8
0
 10
11.843
 20
-33.7033
 11
11.9714
 21
-33.7214
  0
LINE
  8
0
 10
11.9714
 20
-33.7214
 11
12.0997
 21
-33.735
  0
LINE
  8
0
 10
12.0997
 20
-33.735
 11
12.1876
 21
-33.7418
  0
LINE
  8
0
 10
12.1876
 20
-33.7418
 11
12.3507
 21
-33.7486
  0
LINE
  8
0
 10
12.3507
 20
-33.7486
 11
12.4387
 21
-33.7488
  0
LINE
  8
0
 10
12.4387
 20
-33.7488
 11
12.5871
 21
-33.744
  0
LINE
  8
0
 10
12.5871
 20
-33.744
 11
12.7724
 21
-33.7254
  0
LINE
  8
0
 10
12.7724
 20
-33.7254
 11
12.8308
 21
-33.7168
  0
LINE
  8
0
 10
12.8308
 20
-33.7168
 11
12.8896
 21
-33.7068
  0
LINE
  8
0
 10
12.8896
 20
-33.7068
 11
13.0423
 21
-33.6739
  0
LINE
  8
0
 10
13.0423
 20
-33.6739
 11
13.1505
 21
-33.6434
  0
LINE
  8
0
 10
13.1505
 20
-33.6434
 11
13.2234
 21
-33.6192
  0
LINE
  8
0
 10
13.2234
 20
-33.6192
 11
13.2741
 21
-33.6008
  0
LINE
  8
0
 10
13.2741
 20
-33.6008
 11
13.3217
 21
-33.5825
  0
LINE
  8
0
 10
13.3217
 20
-33.5825
 11
13.4567
 21
-33.5219
  0
LINE
  8
0
 10
13.4567
 20
-33.5219
 11
13.4794
 21
-33.5106
  0
LINE
  8
0
 10
13.4794
 20
-33.5106
 11
13.6039
 21
-33.442
  0
LINE
  8
0
 10
13.6039
 20
-33.442
 11
13.6729
 21
-33.3991
  0
LINE
  8
0
 10
13.6729
 20
-33.3991
 11
13.704
 21
-33.3786
  0
LINE
  8
0
 10
13.704
 20
-33.3786
 11
13.7734
 21
-33.3298
  0
LINE
  8
0
 10
13.7734
 20
-33.3298
 11
13.8693
 21
-33.2556
  0
LINE
  8
0
 10
13.8693
 20
-33.2556
 11
13.9354
 21
-33.1983
  0
LINE
  8
0
 10
13.9354
 20
-33.1983
 11
14.0226
 21
-33.1166
  0
LINE
  8
0
 10
14.0226
 20
-33.1166
 11
14.0358
 21
-33.1039
  0
LINE
  8
0
 10
14.0358
 20
-33.1039
 11
14.1699
 21
-32.9585
  0
LINE
  8
0
 10
14.1699
 20
-32.9585
 11
14.1785
 21
-32.9483
  0
LINE
  8
0
 10
14.1785
 20
-32.9483
 11
14.2675
 21
-32.8379
  0
LINE
  8
0
 10
14.2675
 20
-32.8379
 11
14.322
 21
-32.7642
  0
LINE
  8
0
 10
14.322
 20
-32.7642
 11
14.347
 21
-32.7301
  0
LINE
  8
0
 10
14.347
 20
-32.7301
 11
14.4535
 21
-32.5663
  0
LINE
  8
0
 10
14.4535
 20
-32.5663
 11
14.4701
 21
-32.5397
  0
LINE
  8
0
 10
14.4701
 20
-32.5397
 11
14.5683
 21
-32.3668
  0
LINE
  8
0
 10
14.5683
 20
-32.3668
 11
14.683
 21
-32.1368
  0
LINE
  8
0
 10
14.683
 20
-32.1368
 11
14.7238
 21
-32.0486
  0
LINE
  8
0
 10
14.7238
 20
-32.0486
 11
14.8439
 21
-31.7545
  0
LINE
  8
0
 10
14.8439
 20
-31.7545
 11
14.8738
 21
-31.6747
  0
LINE
  8
0
 10
14.8738
 20
-31.6747
 11
14.9454
 21
-31.4736
  0
LINE
  8
0
 10
14.9454
 20
-31.4736
 11
15.0326
 21
-31.2046
  0
LINE
  8
0
 10
15.0326
 20
-31.2046
 11
15.1785
 21
-30.6982
  0
LINE
  8
0
 10
15.1785
 20
-30.6982
 11
15.3067
 21
-30.2289
  0
LINE
  8
0
 10
15.3067
 20
-30.2289
 11
15.3551
 21
-30.0544
  0
LINE
  8
0
 10
15.3551
 20
-30.0544
 11
15.4437
 21
-29.7386
  0
LINE
  8
0
 10
15.4437
 20
-29.7386
 11
15.4926
 21
-29.5737
  0
LINE
  8
0
 10
15.4926
 20
-29.5737
 11
15.594
 21
-29.2448
  0
LINE
  8
0
 10
15.594
 20
-29.2448
 11
15.65
 21
-29.0723
  0
LINE
  8
0
 10
15.65
 20
-29.0723
 11
15.7109
 21
-28.8981
  0
LINE
  8
0
 10
15.7109
 20
-28.8981
 11
15.9009
 21
-28.3839
  0
LINE
  8
0
 10
15.9009
 20
-28.3839
 11
15.9862
 21
-28.1698
  0
LINE
  8
0
 10
15.9862
 20
-28.1698
 11
16.1683
 21
-27.748
  0
LINE
  8
0
 10
16.1683
 20
-27.748
 11
16.2769
 21
-27.5058
  0
LINE
  8
0
 10
16.2769
 20
-27.5058
 11
16.4107
 21
-27.2312
  0
LINE
  8
0
 10
16.4107
 20
-27.2312
 11
16.5907
 21
-26.8685
  0
LINE
  8
0
 10
16.5907
 20
-26.8685
 11
16.9125
 21
-26.2734
  0
LINE
  8
0
 10
16.9125
 20
-26.2734
 11
17.2605
 21
-25.6755
  0
LINE
  8
0
 10
17.2605
 20
-25.6755
 11
17.5209
 21
-25.2568
  0
LINE
  8
0
 10
17.5209
 20
-25.2568
 11
17.6543
 21
-25.0447
  0
LINE
  8
0
 10
17.6543
 20
-25.0447
 11
17.8323
 21
-24.7761
  0
LINE
  8
0
 10
17.8323
 20
-24.7761
 11
18.0516
 21
-24.4486
  0
LINE
  8
0
 10
18.0516
 20
-24.4486
 11
18.2276
 21
-24.2005
  0
LINE
  8
0
 10
18.2276
 20
-24.2005
 11
18.4651
 21
-23.8703
  0
LINE
  8
0
 10
18.4651
 20
-23.8703
 11
18.6226
 21
-23.6647
  0
LINE
  8
0
 10
18.6226
 20
-23.6647
 11
18.8914
 21
-23.3197
  0
LINE
  8
0
 10
18.8914
 20
-23.3197
 11
19.0418
 21
-23.1402
  0
LINE
  8
0
 10
19.0418
 20
-23.1402
 11
19.3208
 21
-22.8129
  0
LINE
  8
0
 10
19.3208
 20
-22.8129
 11
19.5082
 21
-22.6109
  0
LINE
  8
0
 10
19.5082
 20
-22.6109
 11
19.7554
 21
-22.3492
  0
LINE
  8
0
 10
19.7554
 20
-22.3492
 11
19.9895
 21
-22.1245
  0
LINE
  8
0
 10
19.9895
 20
-22.1245
 11
20.2087
 21
-21.918
  0
LINE
  8
0
 10
20.2087
 20
-21.918
 11
20.439
 21
-21.7234
  0
LINE
  8
0
 10
20.439
 20
-21.7234
 11
20.6756
 21
-21.527
  0
LINE
  8
0
 10
20.6756
 20
-21.527
 11
20.8851
 21
-21.3723
  0
LINE
  8
0
 10
20.8851
 20
-21.3723
 11
21.148
 21
-21.1813
  0
LINE
  8
0
 10
21.148
 20
-21.1813
 11
21.3457
 21
-21.054
  0
LINE
  8
0
 10
21.3457
 20
-21.054
 11
21.6262
 21
-20.8768
  0
LINE
  8
0
 10
21.6262
 20
-20.8768
 11
21.8152
 21
-20.7706
  0
LINE
  8
0
 10
21.8152
 20
-20.7706
 11
22.1112
 21
-20.6091
  0
LINE
  8
0
 10
22.1112
 20
-20.6091
 11
22.2959
 21
-20.5185
  0
LINE
  8
0
 10
22.2959
 20
-20.5185
 11
22.5981
 21
-20.3773
  0
LINE
  8
0
 10
22.5981
 20
-20.3773
 11
22.7797
 21
-20.2996
  0
LINE
  8
0
 10
22.7797
 20
-20.2996
 11
23.1086
 21
-20.1704
  0
LINE
  8
0
 10
23.1086
 20
-20.1704
 11
23.257
 21
-20.1155
  0
LINE
  8
0
 10
23.257
 20
-20.1155
 11
23.7393
 21
-19.9612
  0
LINE
  8
0
 10
23.7393
 20
-19.9612
 11
23.7792
 21
-19.9507
  0
LINE
  8
0
 10
23.7792
 20
-19.9507
 11
24.2646
 21
-19.8289
  0
LINE
  8
0
 10
24.2646
 20
-19.8289
 11
24.4015
 21
-19.7992
  0
LINE
  8
0
 10
24.4015
 20
-19.7992
 11
24.9076
 21
-19.6975
  0
LINE
  8
0
 10
24.9076
 20
-19.6975
 11
24.9106
 21
-19.697
  0
LINE
  8
0
 10
24.9106
 20
-19.697
 11
25.5229
 21
-19.5932
  0
LINE
  8
0
 10
25.5229
 20
-19.5932
 11
25.5774
 21
-19.5846
  0
LINE
  8
0
 10
25.5774
 20
-19.5846
 11
26.8173
 21
-19.3988
  0
LINE
  8
0
 10
26.8173
 20
-19.3988
 11
26.9182
 21
-19.3842
  0
LINE
  8
0
 10
26.9182
 20
-19.3842
 11
27.3223
 21
-19.3264
  0
LINE
  8
0
 10
27.3223
 20
-19.3264
 11
28.335
 21
-19.1822
  0
LINE
  8
0
 10
28.335
 20
-19.1822
 11
28.8666
 21
-19.1062
  0
LINE
  8
0
 10
28.8666
 20
-19.1062
 11
29.4264
 21
-19.0254
  0
LINE
  8
0
 10
29.4264
 20
-19.0254
 11
29.6375
 21
-18.9948
  0
LINE
  8
0
 10
29.6375
 20
-18.9948
 11
30.0128
 21
-18.9399
  0
LINE
  8
0
 10
30.0128
 20
-18.9399
 11
30.6243
 21
-18.8494
  0
LINE
  8
0
 10
30.6243
 20
-18.8494
 11
31.2589
 21
-18.754
  0
LINE
  8
0
 10
31.2589
 20
-18.754
 11
31.9145
 21
-18.6536
  0
LINE
  8
0
 10
31.9145
 20
-18.6536
 11
32.4033
 21
-18.5775
  0
LINE
  8
0
 10
32.4033
 20
-18.5775
 11
32.5888
 21
-18.5484
  0
LINE
  8
0
 10
32.5888
 20
-18.5484
 11
33.2794
 21
-18.4384
  0
LINE
  8
0
 10
33.2794
 20
-18.4384
 11
34.6994
 21
-18.2044
  0
LINE
  8
0
 10
34.6994
 20
-18.2044
 11
35.1773
 21
-18.1232
  0
LINE
  8
0
 10
35.1773
 20
-18.1232
 11
36.1539
 21
-17.9529
  0
LINE
  8
0
 10
36.1539
 20
-17.9529
 11
37.9574
 21
-17.6223
  0
LINE
  8
0
 10
37.9574
 20
-17.6223
 11
39.0861
 21
-17.4036
  0
LINE
  8
0
 10
39.0861
 20
-17.4036
 11
40.5277
 21
-17.1095
  0
LINE
  8
0
 10
40.5277
 20
-17.1095
 11
40.741
 21
-17.0642
  0
LINE
  8
0
 10
40.741
 20
-17.0642
 11
41.9338
 21
-16.8051
  0
LINE
  8
0
 10
41.9338
 20
-16.8051
 11
42.1316
 21
-16.7605
  0
LINE
  8
0
 10
42.1316
 20
-16.7605
 11
43.2955
 21
-16.492
  0
LINE
  8
0
 10
43.2955
 20
-16.492
 11
43.5195
 21
-16.4386
  0
LINE
  8
0
 10
43.5195
 20
-16.4386
 11
44.6083
 21
-16.1721
  0
LINE
  8
0
 10
44.6083
 20
-16.1721
 11
44.9036
 21
-16.0975
  0
LINE
  8
0
 10
44.9036
 20
-16.0975
 11
45.8714
 21
-15.8469
  0
LINE
  8
0
 10
45.8714
 20
-15.8469
 11
46.2814
 21
-15.7367
  0
LINE
  8
0
 10
46.2814
 20
-15.7367
 11
47.0876
 21
-15.5178
  0
LINE
  8
0
 10
47.0876
 20
-15.5178
 11
47.6513
 21
-15.359
  0
LINE
  8
0
 10
47.6513
 20
-15.359
 11
48.2617
 21
-15.186
  0
LINE
  8
0
 10
48.2617
 20
-15.186
 11
49.0114
 21
-14.9673
  0
LINE
  8
0
 10
49.0114
 20
-14.9673
 11
49.401
 21
-14.8525
  0
LINE
  8
0
 10
49.401
 20
-14.8525
 11
50.5135
 21
-14.5182
  0
LINE
  8
0
 10
50.5135
 20
-14.5182
 11
51.6969
 21
-14.157
  0
LINE
  8
0
 10
51.6969
 20
-14.157
 11
54.0754
 21
-13.4242
  0
LINE
  8
0
 10
54.0754
 20
-13.4242
 11
54.6483
 21
-13.2492
  0
LINE
  8
0
 10
54.6483
 20
-13.2492
 11
59.638
 21
-11.737
  0
LINE
  8
0
 10
59.638
 20
-11.737
 11
60.4077
 21
-11.5001
  0
LINE
  8
0
 10
60.4077
 20
-11.5001
 11
60.9731
 21
-11.3238
  0
LINE
  8
0
 10
60.9731
 20
-11.3238
 11
61.5089
 21
-11.1537
  0
LINE
  8
0
 10
61.5089
 20
-11.1537
 11
62.3154
 21
-10.8923
  0
LINE
  8
0
 10
62.3154
 20
-10.8923
 11
62.589
 21
-10.8012
  0
LINE
  8
0
 10
62.589
 20
-10.8012
 11
63.6382
 21
-10.4413
  0
LINE
  8
0
 10
63.6382
 20
-10.4413
 11
63.665
 21
-10.4319
  0
LINE
  8
0
 10
63.665
 20
-10.4319
 11
64.6473
 21
-10.0729
  0
LINE
  8
0
 10
64.6473
 20
-10.0729
 11
65.0215
 21
-9.92976
  0
LINE
  8
0
 10
65.0215
 20
-9.92976
 11
65.6075
 21
-9.69514
  0
LINE
  8
0
 10
65.6075
 20
-9.69514
 11
65.702
 21
-9.65645
  0
LINE
  8
0
 10
65.702
 20
-9.65645
 11
66.3837
 21
-9.36446
  0
LINE
  8
0
 10
66.3837
 20
-9.36446
 11
66.5116
 21
-9.30734
  0
LINE
  8
0
 10
66.5116
 20
-9.30734
 11
67.0669
 21
-9.04984
  0
LINE
  8
0
 10
67.0669
 20
-9.04984
 11
67.3543
 21
-8.90916
  0
LINE
  8
0
 10
67.3543
 20
-8.90916
 11
67.7495
 21
-8.70775
  0
LINE
  8
0
 10
67.7495
 20
-8.70775
 11
68.133
 21
-8.50067
  0
LINE
  8
0
 10
68.133
 20
-8.50067
 11
68.4284
 21
-8.33357
  0
LINE
  8
0
 10
68.4284
 20
-8.33357
 11
68.8479
 21
-8.08226
  0
LINE
  8
0
 10
68.8479
 20
-8.08226
 11
69.1004
 21
-7.92267
  0
LINE
  8
0
 10
69.1004
 20
-7.92267
 11
69.5016
 21
-7.65459
  0
LINE
  8
0
 10
69.5016
 20
-7.65459
 11
69.7604
 21
-7.47078
  0
LINE
  8
0
 10
69.7604
 20
-7.47078
 11
70.0987
 21
-7.21834
  0
LINE
  8
0
 10
70.0987
 20
-7.21834
 11
70.4004
 21
-6.97774
  0
LINE
  8
0
 10
70.4004
 20
-6.97774
 11
70.6449
 21
-6.77396
  0
LINE
  8
0
 10
70.6449
 20
-6.77396
 11
71.0139
 21
-6.44536
  0
LINE
  8
0
 10
71.0139
 20
-6.44536
 11
71.1464
 21
-6.32144
  0
LINE
  8
0
 10
71.1464
 20
-6.32144
 11
71.5949
 21
-5.87569
  0
LINE
  8
0
 10
71.5949
 20
-5.87569
 11
71.6091
 21
-5.86015
  0
LINE
  8
0
 10
71.6091
 20
-5.86015
 11
72.0379
 21
-5.38855
  0
LINE
  8
0
 10
72.0379
 20
-5.38855
 11
72.1429
 21
-5.2682
  0
LINE
  8
0
 10
72.1429
 20
-5.2682
 11
72.4366
 21
-4.90402
  0
LINE
  8
0
 10
72.4366
 20
-4.90402
 11
72.6551
 21
-4.61659
  0
LINE
  8
0
 10
72.6551
 20
-4.61659
 11
72.8067
 21
-4.40306
  0
LINE
  8
0
 10
72.8067
 20
-4.40306
 11
72.8968
 21
-4.27213
  0
LINE
  8
0
 10
72.8968
 20
-4.27213
 11
73.1283
 21
-3.91409
  0
LINE
  8
0
 10
73.1283
 20
-3.91409
 11
73.1481
 21
-3.8819
  0
LINE
  8
0
 10
73.1481
 20
-3.8819
 11
73.3473
 21
-3.54222
  0
LINE
  8
0
 10
73.3473
 20
-3.54222
 11
73.4593
 21
-3.33716
  0
LINE
  8
0
 10
73.4593
 20
-3.33716
 11
73.5519
 21
-3.15689
  0
LINE
  8
0
 10
73.5519
 20
-3.15689
 11
73.7372
 21
-2.76665
  0
LINE
  8
0
 10
73.7372
 20
-2.76665
 11
73.9111
 21
-2.34776
  0
LINE
  8
0
 10
73.9111
 20
-2.34776
 11
73.9777
 21
-2.17001
  0
LINE
  8
0
 10
73.9777
 20
-2.17001
 11
74.0621
 21
-1.9249
  0
LINE
  8
0
 10
74.0621
 20
-1.9249
 11
74.1758
 21
-1.54945
  0
LINE
  8
0
 10
74.1758
 20
-1.54945
 11
74.1919
 21
-1.49045
  0
LINE
  8
0
 10
74.1919
 20
-1.49045
 11
74.2988
 21
-1.04443
  0
LINE
  8
0
 10
74.2988
 20
-1.04443
 11
74.3256
 21
-0.910172
  0
LINE
  8
0
 10
74.3256
 20
-0.910172
 11
74.3808
 21
-0.585983
  0
LINE
  8
0
 10
74.3808
 20
-0.585983
 11
74.4215
 21
-0.259811
  0
LINE
  8
0
 10
74.4215
 20
-0.259811
 11
74.4349
 21
-0.114288
  0
LINE
  8
0
 10
74.4349
 20
-0.114288
 11
74.4581
 21
0.392563
  0
LINE
  8
0
 10
74.4581
 20
0.392563
 11
74.4529
 21
0.716568
  0
LINE
  8
0
 10
74.4529
 20
0.716568
 11
74.4317
 21
1.0376
  0
LINE
  8
0
 10
74.4317
 20
1.0376
 11
74.3943
 21
1.35455
  0
LINE
  8
0
 10
74.3943
 20
1.35455
 11
74.3407
 21
1.66652
  0
LINE
  8
0
 10
74.3407
 20
1.66652
 11
74.2901
 21
1.89215
  0
LINE
  8
0
 10
74.2901
 20
1.89215
 11
74.2711
 21
1.97267
  0
LINE
  8
0
 10
74.2711
 20
1.97267
 11
74.1862
 21
2.2724
  0
LINE
  8
0
 10
74.1862
 20
2.2724
 11
74.1479
 21
2.39062
  0
LINE
  8
0
 10
74.1479
 20
2.39062
 11
73.9731
 21
2.85107
  0
LINE
  8
0
 10
73.9731
 20
2.85107
 11
73.9681
 21
2.86223
  0
LINE
  8
0
 10
73.9681
 20
2.86223
 11
73.7619
 21
3.30103
  0
LINE
  8
0
 10
73.7619
 20
3.30103
 11
73.7096
 21
3.40146
  0
LINE
  8
0
 10
73.7096
 20
3.40146
 11
73.5385
 21
3.70699
  0
LINE
  8
0
 10
73.5385
 20
3.70699
 11
73.4062
 21
3.92488
  0
LINE
  8
0
 10
73.4062
 20
3.92488
 11
73.3071
 21
4.08011
  0
LINE
  8
0
 10
73.3071
 20
4.08011
 11
73.0741
 21
4.42528
  0
LINE
  8
0
 10
73.0741
 20
4.42528
 11
72.8391
 21
4.75002
  0
LINE
  8
0
 10
72.8391
 20
4.75002
 11
72.7225
 21
4.90221
  0
LINE
  8
0
 10
72.7225
 20
4.90221
 11
72.3591
 21
5.36188
  0
LINE
  8
0
 10
72.3591
 20
5.36188
 11
58.8115
 21
21.9557
  0
LINE
  8
0
 10
58.8115
 20
21.9557
 11
58.7125
 21
22.0707
  0
LINE
  8
0
 10
58.7125
 20
22.0707
 11
58.6707
 21
22.1149
  0
LINE
  8
0
 10
58.6707
 20
22.1149
 11
58.619
 21
22.1688
  0
LINE
  8
0
 10
58.619
 20
22.1688
 11
58.511
 21
22.2705
  0
LINE
  8
0
 10
58.511
 20
22.2705
 11
58.4545
 21
22.321
  0
LINE
  8
0
 10
58.4545
 20
22.321
 11
58.327
 21
22.4268
  0
LINE
  8
0
 10
58.327
 20
22.4268
 11
58.2235
 21
22.5063
  0
LINE
  8
0
 10
58.2235
 20
22.5063
 11
58.1341
 21
22.5698
  0
LINE
  8
0
 10
58.1341
 20
22.5698
 11
58.0296
 21
22.6404
  0
LINE
  8
0
 10
58.0296
 20
22.6404
 11
57.9171
 21
22.7119
  0
LINE
  8
0
 10
57.9171
 20
22.7119
 11
57.8118
 21
22.7747
  0
LINE
  8
0
 10
57.8118
 20
22.7747
 11
57.6818
 21
22.8475
  0
LINE
  8
0
 10
57.6818
 20
22.8475
 11
57.5803
 21
22.9008
  0
LINE
  8
0
 10
57.5803
 20
22.9008
 11
57.4295
 21
22.9751
  0
LINE
  8
0
 10
57.4295
 20
22.9751
 11
57.358
 21
23.0083
  0
LINE
  8
0
 10
57.358
 20
23.0083
 11
57.1537
 21
23.0967
  0
LINE
  8
0
 10
57.1537
 20
23.0967
 11
56.959
 21
23.172
  0
LINE
  8
0
 10
56.959
 20
23.172
 11
56.882
 21
23.1995
  0
LINE
  8
0
 10
56.882
 20
23.1995
 11
56.592
 21
23.292
  0
LINE
  8
0
 10
56.592
 20
23.292
 11
56.5593
 21
23.3013
  0
LINE
  8
0
 10
56.5593
 20
23.3013
 11
56.3426
 21
23.3576
  0
LINE
  8
0
 10
56.3426
 20
23.3576
 11
56.2943
 21
23.3687
  0
LINE
  8
0
 10
56.2943
 20
23.3687
 11
56.1111
 21
23.4066
  0
LINE
  8
0
 10
56.1111
 20
23.4066
 11
55.991
 21
23.4274
  0
LINE
  8
0
 10
55.991
 20
23.4274
 11
55.865
 21
23.4459
  0
LINE
  8
0
 10
55.865
 20
23.4459
 11
55.6831
 21
23.4663
  0
LINE
  8
0
 10
55.6831
 20
23.4663
 11
55.6058
 21
23.4723
  0
LINE
  8
0
 10
55.6058
 20
23.4723
 11
55.3707
 21
23.4836
  0
LINE
  8
0
 10
55.3707
 20
23.4836
 11
55.0782
 21
23.4795
  0
LINE
  8
0
 10
55.0782
 20
23.4795
 11
55.0524
 21
23.4783
  0
LINE
  8
0
 10
55.0524
 20
23.4783
 11
54.8266
 21
23.4607
  0
LINE
  8
0
 10
54.8266
 20
23.4607
 11
54.7256
 21
23.4493
  0
LINE
  8
0
 10
54.7256
 20
23.4493
 11
54.591
 21
23.431
  0
LINE
  8
0
 10
54.591
 20
23.431
 11
54.3866
 21
23.3961
  0
LINE
  8
0
 10
54.3866
 20
23.3961
 11
54.3712
 21
23.3932
  0
LINE
  8
0
 10
54.3712
 20
23.3932
 11
54.1668
 21
23.3505
  0
LINE
  8
0
 10
54.1668
 20
23.3505
 11
54.0311
 21
23.3185
  0
LINE
  8
0
 10
54.0311
 20
23.3185
 11
53.7946
 21
23.2567
  0
LINE
  8
0
 10
53.7946
 20
23.2567
 11
53.6546
 21
23.2165
  0
LINE
  8
0
 10
53.6546
 20
23.2165
 11
53.4566
 21
23.1564
  0
LINE
  8
0
 10
53.4566
 20
23.1564
 11
53.2525
 21
23.0907
  0
LINE
  8
0
 10
53.2525
 20
23.0907
 11
52.8392
 21
22.9483
  0
LINE
  8
0
 10
52.8392
 20
22.9483
 11
52.8204
 21
22.9415
  0
LINE
  8
0
 10
52.8204
 20
22.9415
 11
52.3547
 21
22.7698
  0
LINE
  8
0
 10
52.3547
 20
22.7698
 11
52.2639
 21
22.7355
  0
LINE
  8
0
 10
52.2639
 20
22.7355
 11
51.8527
 21
22.5769
  0
LINE
  8
0
 10
51.8527
 20
22.5769
 11
51.3131
 21
22.3639
  0
LINE
  8
0
 10
51.3131
 20
22.3639
 11
51.1656
 21
22.3051
  0
LINE
  8
0
 10
51.1656
 20
22.3051
 11
50.7357
 21
22.1323
  0
LINE
  8
0
 10
50.7357
 20
22.1323
 11
50.0928
 21
21.8722
  0
LINE
  8
0
 10
50.0928
 20
21.8722
 11
49.4724
 21
21.6199
  0
LINE
  8
0
 10
49.4724
 20
21.6199
 11
47.965
 21
21.0063
  0
LINE
  8
0
 10
47.965
 20
21.0063
 11
45.8256
 21
20.1367
  0
LINE
  8
0
 10
45.8256
 20
20.1367
 11
43.7137
 21
19.2781
  0
LINE
  8
0
 10
43.7137
 20
19.2781
 11
42.6988
 21
18.8637
  0
LINE
  8
0
 10
42.6988
 20
18.8637
 11
41.1668
 21
18.234
  0
LINE
  8
0
 10
41.1668
 20
18.234
 11
40.421
 21
17.925
  0
LINE
  8
0
 10
40.421
 20
17.925
 11
39.6915
 21
17.6209
  0
LINE
  8
0
 10
39.6915
 20
17.6209
 11
38.9791
 21
17.3221
  0
LINE
  8
0
 10
38.9791
 20
17.3221
 11
38.2836
 21
17.0286
  0
LINE
  8
0
 10
38.2836
 20
17.0286
 11
36.9389
 21
16.4574
  0
LINE
  8
0
 10
36.9389
 20
16.4574
 11
35.234
 21
15.7319
  0
LINE
  8
0
 10
35.234
 20
15.7319
 11
33.1373
 21
14.8519
  0
LINE
  8
0
 10
33.1373
 20
14.8519
 11
31.0411
 21
14.003
  0
LINE
  8
0
 10
31.0411
 20
14.003
 11
31.036
 21
14.001
  0
LINE
  8
0
 10
31.036
 20
14.001
 11
28.9294
 21
13.1856
  0
LINE
  8
0
 10
28.9294
 20
13.1856
 11
26.9578
 21
12.4478
  0
LINE
  8
0
 10
26.9578
 20
12.4478
 11
26.4033
 21
12.243
  0
LINE
  8
0
 10
26.4033
 20
12.243
 11
24.6621
 21
11.6035
  0
LINE
  8
0
 10
24.6621
 20
11.6035
 11
22.7316
 21
10.8935
  0
LINE
  8
0
 10
22.7316
 20
10.8935
 11
22.5038
 21
10.8091
  0
LINE
  8
0
 10
22.5038
 20
10.8091
 11
21.9621
 21
10.6074
  0
LINE
  8
0
 10
21.9621
 20
10.6074
 11
21.211
 21
10.325
  0
LINE
  8
0
 10
21.211
 20
10.325
 11
20.3299
 21
9.98982
  0
LINE
  8
0
 10
20.3299
 20
9.98982
 11
19.7831
 21
9.77541
  0
LINE
  8
0
 10
19.7831
 20
9.77541
 11
19.2376
 21
9.56123
  0
LINE
  8
0
 10
19.2376
 20
9.56123
 11
18.4823
 21
9.25194
  0
LINE
  8
0
 10
18.4823
 20
9.25194
 11
18.1409
 21
9.11006
  0
LINE
  8
0
 10
18.1409
 20
9.11006
 11
17.8877
 21
9.00183
  0
LINE
  8
0
 10
17.8877
 20
9.00183
 11
17.3331
 21
8.76013
  0
LINE
  8
0
 10
17.3331
 20
8.76013
 11
17.0389
 21
8.62802
  0
LINE
  8
0
 10
17.0389
 20
8.62802
 11
16.8192
 21
8.52707
  0
LINE
  8
0
 10
16.8192
 20
8.52707
 11
16.3455
 21
8.30264
  0
LINE
  8
0
 10
16.3455
 20
8.30264
 11
15.929
 21
8.09605
  0
LINE
  8
0
 10
15.929
 20
8.09605
 11
15.9104
 21
8.08658
  0
LINE
  8
0
 10
15.9104
 20
8.08658
 11
15.511
 21
7.87836
  0
LINE
  8
0
 10
15.511
 20
7.87836
 11
15.372
 21
7.80296
  0
LINE
  8
0
 10
15.372
 20
7.80296
 11
15.1435
 21
7.6772
  0
LINE
  8
0
 10
15.1435
 20
7.6772
 11
14.8035
 21
7.48206
  0
LINE
  8
0
 10
14.8035
 20
7.48206
 11
14.4861
 21
7.29169
  0
LINE
  8
0
 10
14.4861
 20
7.29169
 11
14.2758
 21
7.16104
  0
LINE
  8
0
 10
14.2758
 20
7.16104
 11
14.1864
 21
7.10461
  0
LINE
  8
0
 10
14.1864
 20
7.10461
 11
13.7497
 21
6.82069
  0
LINE
  8
0
 10
13.7497
 20
6.82069
 11
13.6205
 21
6.73341
  0
LINE
  8
0
 10
13.6205
 20
6.73341
 11
13.2352
 21
6.46886
  0
LINE
  8
0
 10
13.2352
 20
6.46886
 11
13.0726
 21
6.35269
  0
LINE
  8
0
 10
13.0726
 20
6.35269
 11
12.7226
 21
6.09695
  0
LINE
  8
0
 10
12.7226
 20
6.09695
 11
12.5213
 21
5.9444
  0
LINE
  8
0
 10
12.5213
 20
5.9444
 11
12.2083
 21
5.69688
  0
LINE
  8
0
 10
12.2083
 20
5.69688
 11
11.9573
 21
5.4911
  0
LINE
  8
0
 10
11.9573
 20
5.4911
 11
11.7036
 21
5.27231
  0
LINE
  8
0
 10
11.7036
 20
5.27231
 11
11.3788
 21
4.98039
  0
LINE
  8
0
 10
11.3788
 20
4.98039
 11
11.2209
 21
4.83266
  0
LINE
  8
0
 10
11.2209
 20
4.83266
 11
10.7861
 21
4.40921
  0
LINE
  8
0
 10
10.7861
 20
4.40921
 11
10.7683
 21
4.39177
  0
LINE
  8
0
 10
10.7683
 20
4.39177
 11
10.3425
 21
3.95895
  0
LINE
  8
0
 10
10.3425
 20
3.95895
 11
10.1658
 21
3.77637
  0
LINE
  8
0
 10
10.1658
 20
3.77637
 11
9.5946
 21
3.19011
  0
LINE
  8
0
 10
9.5946
 20
3.19011
 11
9.5497
 21
3.14424
  0
LINE
  8
0
 10
9.5497
 20
3.14424
 11
9.5255
 21
3.1203
  0
LINE
  8
0
 10
9.5255
 20
3.1203
 11
8.9545
 21
2.56575
  0
LINE
  8
0
 10
8.9545
 20
2.56575
 11
8.83496
 21
2.45325
  0
LINE
  8
0
 10
8.83496
 20
2.45325
 11
8.69463
 21
2.32764
  0
LINE
  8
0
 10
8.69463
 20
2.32764
 11
8.4778
 21
2.13731
  0
LINE
  8
0
 10
8.4778
 20
2.13731
 11
8.31563
 21
2.00276
  0
LINE
  8
0
 10
8.31563
 20
2.00276
 11
8.10681
 21
1.83459
  0
LINE
  8
0
 10
8.10681
 20
1.83459
 11
7.94196
 21
1.70975
  0
LINE
  8
0
 10
7.94196
 20
1.70975
 11
7.72993
 21
1.55498
  0
LINE
  8
0
 10
7.72993
 20
1.55498
 11
7.55209
 21
1.43382
  0
LINE
  8
0
 10
7.55209
 20
1.43382
 11
7.34621
 21
1.29926
  0
LINE
  8
0
 10
7.34621
 20
1.29926
 11
7.14957
 21
1.1803
  0
LINE
  8
0
 10
7.14957
 20
1.1803
 11
6.94644
 21
1.06294
  0
LINE
  8
0
 10
6.94644
 20
1.06294
 11
6.74481
 21
0.955841
  0
LINE
  8
0
 10
6.74481
 20
0.955841
 11
6.52477
 21
0.84462
  0
LINE
  8
0
 10
6.52477
 20
0.84462
 11
6.33496
 21
0.756912
  0
LINE
  8
0
 10
6.33496
 20
0.756912
 11
6.09042
 21
0.649384
  0
LINE
  8
0
 10
6.09042
 20
0.649384
 11
5.90277
 21
0.574493
  0
LINE
  8
0
 10
5.90277
 20
0.574493
 11
5.649
 21
0.477966
  0
LINE
  8
0
 10
5.649
 20
0.477966
 11
5.4409
 21
0.406693
  0
LINE
  8
0
 10
5.4409
 20
0.406693
 11
5.19714
 21
0.326996
  0
LINE
  8
0
 10
5.19714
 20
0.326996
 11
4.96185
 21
0.258118
  0
LINE
  8
0
 10
4.96185
 20
0.258118
 11
4.72635
 21
0.192352
  0
LINE
  8
0
 10
4.72635
 20
0.192352
 11
4.47816
 21
0.130447
  0
LINE
  8
0
 10
4.47816
 20
0.130447
 11
4.23941
 21
0.0736084
  0
LINE
  8
0
 10
4.23941
 20
0.0736084
 11
3.98381
 21
0.0193481
  0
LINE
  8
0
 10
3.98381
 20
0.0193481
 11
3.76788
 21
-0.0244446
  0
LINE
  8
0
 10
3.76788
 20
-0.0244446
 11
2.95061
 21
-0.160629
  0
LINE
  8
0
 10
2.95061
 20
-0.160629
 11
2.48451
 21
-0.223892
  0
LINE
  8
0
 10
2.48451
 20
-0.223892
 11
1.86456
 21
-0.297058
  0
LINE
  8
0
 10
1.86456
 20
-0.297058
 11
1.47966
 21
-0.332428
  0
LINE
  8
0
 10
1.47966
 20
-0.332428
 11
0.800278
 21
-0.383575
  0
LINE
  8
0
 10
0.800278
 20
-0.383575
 11
0.372635
 21
-0.403992
  0
LINE
  8
0
 10
0.372635
 20
-0.403992
 11
-0.230621
 21
-0.421753
  0
LINE
  8
0
 10
-0.230621
 20
-0.421753
 11
-1.02348
 21
-0.4216
  0
LINE
  8
0
 10
-1.02348
 20
-0.4216
 11
-1.39833
 21
-0.405884
  0
LINE
  8
0
 10
-1.39833
 20
-0.405884
 11
-1.53865
 21
-0.39975
  0
LINE
  8
0
 10
-1.53865
 20
-0.39975
 11
-2.05241
 21
-0.360107
  0
LINE
  8
0
 10
-2.05241
 20
-0.360107
 11
-2.17346
 21
-0.346161
  0
LINE
  8
0
 10
-2.17346
 20
-0.346161
 11
-2.55266
 21
-0.301834
  0
LINE
  8
0
 10
-2.55266
 20
-0.301834
 11
-2.83878
 21
-0.256531
  0
LINE
  8
0
 10
-2.83878
 20
-0.256531
 11
-3.03143
 21
-0.225418
  0
LINE
  8
0
 10
-3.03143
 20
-0.225418
 11
-3.40625
 21
-0.148438
  0
LINE
  8
0
 10
-3.40625
 20
-0.148438
 11
-3.49762
 21
-0.129135
  0
LINE
  8
0
 10
-3.49762
 20
-0.129135
 11
-3.87637
 21
-0.0319366
  0
LINE
  8
0
 10
-3.87637
 20
-0.0319366
 11
-3.95729
 21
-0.010376
  0
LINE
  8
0
 10
-3.95729
 20
-0.010376
 11
-4.29929
 21
0.0965729
  0
LINE
  8
0
 10
-4.29929
 20
0.0965729
 11
-4.41231
 21
0.133514
  0
LINE
  8
0
 10
-4.41231
 20
0.133514
 11
-4.70087
 21
0.241547
  0
LINE
  8
0
 10
-4.70087
 20
0.241547
 11
-4.85796
 21
0.303207
  0
LINE
  8
0
 10
-4.85796
 20
0.303207
 11
-5.09464
 21
0.407928
  0
LINE
  8
0
 10
-5.09464
 20
0.407928
 11
-5.28477
 21
0.496094
  0
LINE
  8
0
 10
-5.28477
 20
0.496094
 11
-5.55458
 21
0.635803
  0
LINE
  8
0
 10
-5.55458
 20
0.635803
 11
-5.64934
 21
0.686356
  0
LINE
  8
0
 10
-5.64934
 20
0.686356
 11
-6.0085
 21
0.901947
  0
LINE
  8
0
 10
-6.0085
 20
0.901947
 11
-6.05203
 21
0.931335
  0
LINE
  8
0
 10
-6.05203
 20
0.931335
 11
-6.35329
 21
1.13918
  0
LINE
  8
0
 10
-6.35329
 20
1.13918
 11
-6.44215
 21
1.20638
  0
LINE
  8
0
 10
-6.44215
 20
1.20638
 11
-6.68304
 21
1.39644
  0
LINE
  8
0
 10
-6.68304
 20
1.39644
 11
-6.78011
 21
1.47855
  0
LINE
  8
0
 10
-6.78011
 20
1.47855
 11
-6.99695
 21
1.67384
  0
LINE
  8
0
 10
-6.99695
 20
1.67384
 11
-7.09161
 21
1.76349
  0
LINE
  8
0
 10
-7.09161
 20
1.76349
 11
-7.29906
 21
1.97702
  0
LINE
  8
0
 10
-7.29906
 20
1.97702
 11
-7.37936
 21
2.06224
  0
LINE
  8
0
 10
-7.37936
 20
2.06224
 11
-7.6432
 21
2.37395
  0
LINE
  8
0
 10
-7.6432
 20
2.37395
 11
-20.6654
 21
18.8967
  0
LINE
  8
0
 10
-20.6654
 20
18.8967
 11
-20.9577
 21
19.2681
  0
LINE
  8
0
 10
-20.9577
 20
19.2681
 11
-21.0788
 21
19.4201
  0
LINE
  8
0
 10
-21.0788
 20
19.4201
 11
-21.2721
 21
19.6594
  0
LINE
  8
0
 10
-21.2721
 20
19.6594
 11
-21.2974
 21
19.6901
  0
LINE
  8
0
 10
-21.2974
 20
19.6901
 11
-21.5329
 21
19.97
  0
LINE
  8
0
 10
-21.5329
 20
19.97
 11
-21.6176
 21
20.0667
  0
LINE
  8
0
 10
-21.6176
 20
20.0667
 11
-21.7922
 21
20.263
  0
LINE
  8
0
 10
-21.7922
 20
20.263
 11
-21.9785
 21
20.4645
  0
LINE
  8
0
 10
-21.9785
 20
20.4645
 11
-22.0797
 21
20.5712
  0
LINE
  8
0
 10
-22.0797
 20
20.5712
 11
-22.3397
 21
20.8391
  0
LINE
  8
0
 10
-22.3397
 20
20.8391
 11
-22.7005
 21
21.1956
  0
LINE
  8
0
 10
-22.7005
 20
21.1956
 11
-23.1121
 21
21.584
  0
LINE
  8
0
 10
-23.1121
 20
21.584
 11
-23.4327
 21
21.8777
  0
LINE
  8
0
 10
-23.4327
 20
21.8777
 11
-23.5046
 21
21.9424
  0
LINE
  8
0
 10
-23.5046
 20
21.9424
 11
-23.8117
 21
22.2154
  0
LINE
  8
0
 10
-23.8117
 20
22.2154
 11
-24.2081
 21
22.5534
  0
LINE
  8
0
 10
-24.2081
 20
22.5534
 11
-24.6285
 21
22.8883
  0
LINE
  8
0
 10
-24.6285
 20
22.8883
 11
-24.7966
 21
23.0115
  0
LINE
  8
0
 10
-24.7966
 20
23.0115
 11
-25.0793
 21
23.2166
  0
LINE
  8
0
 10
-25.0793
 20
23.2166
 11
-25.2683
 21
23.3439
  0
LINE
  8
0
 10
-25.2683
 20
23.3439
 11
-25.5671
 21
23.535
  0
LINE
  8
0
 10
-25.5671
 20
23.535
 11
-25.7651
 21
23.6531
  0
LINE
  8
0
 10
-25.7651
 20
23.6531
 11
-26.0949
 21
23.8335
  0
LINE
  8
0
 10
-26.0949
 20
23.8335
 11
-26.2899
 21
23.9332
  0
LINE
  8
0
 10
-26.2899
 20
23.9332
 11
-26.6522
 21
24.0986
  0
LINE
  8
0
 10
-26.6522
 20
24.0986
 11
-26.8447
 21
24.1793
  0
LINE
  8
0
 10
-26.8447
 20
24.1793
 11
-27.2255
 21
24.3211
  0
LINE
  8
0
 10
-27.2255
 20
24.3211
 11
-27.4296
 21
24.3886
  0
LINE
  8
0
 10
-27.4296
 20
24.3886
 11
-27.7971
 21
24.4975
  0
LINE
  8
0
 10
-27.7971
 20
24.4975
 11
-28.0421
 21
24.5604
  0
LINE
  8
0
 10
-28.0421
 20
24.5604
 11
-28.3604
 21
24.6341
  0
LINE
  8
0
 10
-28.3604
 20
24.6341
 11
-28.677
 21
24.6963
  0
LINE
  8
0
 10
-28.677
 20
24.6963
 11
-28.9127
 21
24.7379
  0
LINE
  8
0
 10
-28.9127
 20
24.7379
 11
-29.3268
 21
24.7995
  0
LINE
  8
0
 10
-29.3268
 20
24.7995
 11
-29.4515
 21
24.8158
  0
LINE
  8
0
 10
-29.4515
 20
24.8158
 11
-29.9777
 21
24.874
  0
LINE
  8
0
 10
-29.9777
 20
24.874
 11
-30.4948
 21
24.9162
  0
LINE
  8
0
 10
-30.4948
 20
24.9162
 11
-30.6375
 21
24.9254
  0
LINE
  8
0
 10
-30.6375
 20
24.9254
 11
-31.2818
 21
24.957
  0
LINE
  8
0
 10
-31.2818
 20
24.957
 11
-31.5108
 21
24.966
  0
LINE
  8
0
 10
-31.5108
 20
24.966
 11
-31.9098
 21
24.9724
  0
LINE
  8
0
 10
-31.9098
 20
24.9724
 11
-32.5251
 21
24.9777
  0
LINE
  8
0
 10
-32.5251
 20
24.9777
 11
-33.0439
 21
24.9635
  0
LINE
  8
0
 10
-33.0439
 20
24.9635
 11
-33.5772
 21
24.9323
  0
LINE
  8
0
 10
-33.5772
 20
24.9323
 11
-33.6739
 21
24.9246
  0
LINE
  8
0
 10
-33.6739
 20
24.9246
 11
-34.1304
 21
24.8802
  0
LINE
  8
0
 10
-34.1304
 20
24.8802
 11
-34.2287
 21
24.8689
  0
LINE
  8
0
 10
-34.2287
 20
24.8689
 11
-34.7742
 21
24.7865
  0
LINE
  8
0
 10
-34.7742
 20
24.7865
 11
-35.3154
 21
24.6732
  0
LINE
  8
0
 10
-35.3154
 20
24.6732
 11
-35.8557
 21
24.5261
  0
LINE
  8
0
 10
-35.8557
 20
24.5261
 11
-68.8498
 21
14.4823
  0
LINE
  8
0
 10
-68.8498
 20
14.4823
 11
-69.1627
 21
14.3816
  0
LINE
  8
0
 10
-69.1627
 20
14.3816
 11
-69.4517
 21
14.2769
  0
LINE
  8
0
 10
-69.4517
 20
14.2769
 11
-69.482
 21
14.2655
  0
LINE
  8
0
 10
-69.482
 20
14.2655
 11
-69.7254
 21
14.1664
  0
LINE
  8
0
 10
-69.7254
 20
14.1664
 11
-69.807
 21
14.1313
  0
LINE
  8
0
 10
-69.807
 20
14.1313
 11
-69.9814
 21
14.0515
  0
LINE
  8
0
 10
-69.9814
 20
14.0515
 11
-70.1368
 21
13.9758
  0
LINE
  8
0
 10
-70.1368
 20
13.9758
 11
-70.2205
 21
13.9329
  0
LINE
  8
0
 10
-70.2205
 20
13.9329
 11
-70.4676
 21
13.7984
  0
LINE
  8
0
 10
-70.4676
 20
13.7984
 11
-70.8003
 21
13.5916
  0
LINE
  8
0
 10
-70.8003
 20
13.5916
 11
-70.8435
 21
13.5609
  0
LINE
  8
0
 10
-70.8435
 20
13.5609
 11
-71.1425
 21
13.3408
  0
LINE
  8
0
 10
-71.1425
 20
13.3408
 11
-71.1889
 21
13.3035
  0
LINE
  8
0
 10
-71.1889
 20
13.3035
 11
-71.3215
 21
13.1921
  0
LINE
  8
0
 10
-71.3215
 20
13.1921
 11
-71.4867
 21
13.0374
  0
LINE
  8
0
 10
-71.4867
 20
13.0374
 11
-71.5165
 21
13.0077
  0
LINE
  8
0
 10
-71.5165
 20
13.0077
 11
-71.6238
 21
12.8941
  0
LINE
  8
0
 10
-71.6238
 20
12.8941
 11
-71.7388
 21
12.7596
  0
LINE
  8
0
 10
-71.7388
 20
12.7596
 11
-71.7436
 21
12.7535
  0
LINE
  8
0
 10
-71.7436
 20
12.7535
 11
-71.9648
 21
12.4377
  0
LINE
  8
0
 10
-71.9648
 20
12.4377
 11
-71.9691
 21
12.43
  0
LINE
  8
0
 10
-71.9691
 20
12.43
 11
-72.0651
 21
12.2589
  0
LINE
  8
0
 10
-72.0651
 20
12.2589
 11
-72.1425
 21
12.0992
  0
LINE
  8
0
 10
-72.1425
 20
12.0992
 11
-72.153
 21
12.0742
  0
LINE
  8
0
 10
-72.153
 20
12.0742
 11
-72.2343
 21
11.8705
  0
LINE
  8
0
 10
-72.2343
 20
11.8705
 11
-72.256
 21
11.8112
  0
LINE
  8
0
 10
-72.256
 20
11.8112
 11
-72.3063
 21
11.6511
  0
LINE
  8
0
 10
-72.3063
 20
11.6511
 11
-72.3344
 21
11.5518
  0
LINE
  8
0
 10
-72.3344
 20
11.5518
 11
-72.368
 21
11.4159
  0
LINE
  8
0
 10
-72.368
 20
11.4159
 11
-72.3922
 21
11.3064
  0
LINE
  8
0
 10
-72.3922
 20
11.3064
 11
-72.4178
 21
11.1656
  0
LINE
  8
0
 10
-72.4178
 20
11.1656
 11
-72.4539
 21
10.9019
  0
LINE
  8
0
 10
-72.4539
 20
10.9019
 11
-72.4613
 21
10.8262
  0
LINE
  8
0
 10
-72.4613
 20
10.8262
 11
-72.474
 21
10.6272
  0
LINE
  8
0
 10
-72.474
 20
10.6272
 11
-72.4758
 21
10.5795
  0
LINE
  8
0
 10
-72.4758
 20
10.5795
 11
-72.4758
 21
10.3442
  0
LINE
  8
0
 10
-72.4758
 20
10.3442
 11
-72.4752
 21
10.3218
  0
LINE
  8
0
 10
-72.4752
 20
10.3218
 11
-72.4578
 21
10.0454
  0
LINE
  8
0
 10
-72.4578
 20
10.0454
 11
-72.4133
 21
9.74438
  0
LINE
  8
0
 10
-72.4133
 20
9.74438
 11
-72.3459
 21
9.47757
  0
LINE
  8
0
 10
-72.3459
 20
9.47757
 11
-72.3282
 21
9.41412
  0
LINE
  8
0
 10
-72.3282
 20
9.41412
 11
-72.2662
 21
9.2366
  0
LINE
  8
0
 10
-72.2662
 20
9.2366
 11
-72.2495
 21
9.1935
  0
LINE
  8
0
 10
-72.2495
 20
9.1935
 11
-72.1886
 21
9.0524
  0
LINE
  8
0
 10
-72.1886
 20
9.0524
 11
-72.123
 21
8.91656
  0
LINE
  8
0
 10
-72.123
 20
8.91656
 11
-71.965
 21
8.64893
  0
LINE
  8
0
 10
-71.965
 20
8.64893
 11
-71.8837
 21
8.5343
  0
LINE
  8
0
 10
-71.8837
 20
8.5343
 11
-71.7744
 21
8.39197
  0
LINE
  8
0
 10
-71.7744
 20
8.39197
 11
-34.144
 21
-37.2829
  0
LINE
  8
0
 10
-34.144
 20
-37.2829
 11
-33.801
 21
-37.6847
  0
LINE
  8
0
 10
-33.801
 20
-37.6847
 11
-33.7368
 21
-37.7558
  0
LINE
  8
0
 10
-33.7368
 20
-37.7558
 11
-33.4221
 21
-38.0902
  0
LINE
  8
0
 10
-33.4221
 20
-38.0902
 11
-33.3326
 21
-38.1799
  0
LINE
  8
0
 10
-33.3326
 20
-38.1799
 11
-33.2147
 21
-38.297
  0
LINE
  8
0
 10
-33.2147
 20
-38.297
 11
-32.9856
 21
-38.5084
  0
LINE
  8
0
 10
-32.9856
 20
-38.5084
 11
-32.7197
 21
-38.7255
  0
LINE
  8
0
 10
-32.7197
 20
-38.7255
 11
-32.5177
 21
-38.8713
  0
LINE
  8
0
 10
-32.5177
 20
-38.8713
 11
-32.4015
 21
-38.9498
  0
LINE
  8
0
 10
-32.4015
 20
-38.9498
 11
-32.2155
 21
-39.0648
  0
LINE
  8
0
 10
-32.2155
 20
-39.0648
 11
-32.0959
 21
-39.1315
  0
LINE
  8
0
 10
-32.0959
 20
-39.1315
 11
-32.0046
 21
-39.1788
  0
LINE
  8
0
 10
-32.0046
 20
-39.1788
 11
-31.8786
 21
-39.2386
  0
LINE
  8
0
 10
-31.8786
 20
-39.2386
 11
-31.7654
 21
-39.2871
  0
LINE
  8
0
 10
-31.7654
 20
-39.2871
 11
-31.6561
 21
-39.3299
  0
LINE
  8
0
 10
-31.6561
 20
-39.3299
 11
-31.503
 21
-39.3816
  0
LINE
  8
0
 10
-31.503
 20
-39.3816
 11
-31.4275
 21
-39.4052
  0
LINE
  8
0
 10
-31.4275
 20
-39.4052
 11
-31.2345
 21
-39.4551
  0
LINE
  8
0
 10
-31.2345
 20
-39.4551
 11
-31.1922
 21
-39.4644
  0
LINE
  8
0
 10
-31.1922
 20
-39.4644
 11
-30.9787
 21
-39.5037
  0
LINE
  8
0
 10
-30.9787
 20
-39.5037
 11
-30.9496
 21
-39.5075
  0
LINE
  8
0
 10
-30.9496
 20
-39.5075
 11
-30.7429
 21
-39.5321
  0
LINE
  8
0
 10
-30.7429
 20
-39.5321
 11
-30.6992
 21
-39.5348
  0
LINE
  8
0
 10
-30.6992
 20
-39.5348
 11
-30.526
 21
-39.545
  0
LINE
  8
0
 10
-30.526
 20
-39.545
 11
-30.4405
 21
-39.5468
  0
LINE
  8
0
 10
-30.4405
 20
-39.5468
 11
-30.3271
 21
-39.5473
  0
LINE
  8
0
 10
-30.3271
 20
-39.5473
 11
-30.1733
 21
-39.544
  0
LINE
  8
0
 10
-34.0568
 20
-29.1602
 11
-34.4432
 21
-29.092
  0
LINE
  8
0
 10
-34.4432
 20
-29.092
 11
-34.814
 21
-28.9642
  0
LINE
  8
0
 10
-34.814
 20
-28.9642
 11
-35.1604
 21
-28.7799
  0
LINE
  8
0
 10
-35.1604
 20
-28.7799
 11
-35.4736
 21
-28.5437
  0
LINE
  8
0
 10
-35.4736
 20
-28.5437
 11
-35.746
 21
-28.2615
  0
LINE
  8
0
 10
-35.746
 20
-28.2615
 11
-60.8586
 21
2.21951
  0
LINE
  8
0
 10
-60.8586
 20
2.21951
 11
-61.0835
 21
2.54092
  0
LINE
  8
0
 10
-61.0835
 20
2.54092
 11
-61.2553
 21
2.89357
  0
LINE
  8
0
 10
-61.2553
 20
2.89357
 11
-61.3699
 21
3.26875
  0
LINE
  8
0
 10
-61.3699
 20
3.26875
 11
-61.4244
 21
3.65724
  0
LINE
  8
0
 10
-61.4244
 20
3.65724
 11
-61.4175
 21
4.04948
  0
LINE
  8
0
 10
-61.4175
 20
4.04948
 11
-61.3492
 21
4.43579
  0
LINE
  8
0
 10
-61.3492
 20
4.43579
 11
-61.2214
 21
4.80669
  0
LINE
  8
0
 10
-61.2214
 20
4.80669
 11
-61.0372
 21
5.15302
  0
LINE
  8
0
 10
-61.0372
 20
5.15302
 11
-60.801
 21
5.46625
  0
LINE
  8
0
 10
-60.801
 20
5.46625
 11
-60.5187
 21
5.73868
  0
LINE
  8
0
 10
-60.5187
 20
5.73868
 11
-60.1973
 21
5.96361
  0
LINE
  8
0
 10
-60.1973
 20
5.96361
 11
-59.8447
 21
6.13548
  0
LINE
  8
0
 10
-59.8447
 20
6.13548
 11
-59.4695
 21
6.25006
  0
LINE
  8
0
 10
-59.4695
 20
6.25006
 11
-59.081
 21
6.30457
  0
LINE
  8
0
 10
-59.081
 20
6.30457
 11
-58.6888
 21
6.29761
  0
LINE
  8
0
 10
-58.6888
 20
6.29761
 11
-58.3024
 21
6.22937
  0
LINE
  8
0
 10
-58.3024
 20
6.22937
 11
-57.9315
 21
6.10156
  0
LINE
  8
0
 10
-57.9315
 20
6.10156
 11
-57.5852
 21
5.91728
  0
LINE
  8
0
 10
-57.5852
 20
5.91728
 11
-57.272
 21
5.68111
  0
LINE
  8
0
 10
-57.272
 20
5.68111
 11
-56.9996
 21
5.39885
  0
LINE
  8
0
 10
-56.9996
 20
5.39885
 11
-31.887
 21
-25.0821
  0
LINE
  8
0
 10
-31.887
 20
-25.0821
 11
-31.6621
 21
-25.4035
  0
LINE
  8
0
 10
-31.6621
 20
-25.4035
 11
-31.4902
 21
-25.7562
  0
LINE
  8
0
 10
-31.4902
 20
-25.7562
 11
-31.3757
 21
-26.1314
  0
LINE
  8
0
 10
-31.3757
 20
-26.1314
 11
-31.3212
 21
-26.5199
  0
LINE
  8
0
 10
-31.3212
 20
-26.5199
 11
-31.3281
 21
-26.9121
  0
LINE
  8
0
 10
-31.3281
 20
-26.9121
 11
-31.3963
 21
-27.2984
  0
LINE
  8
0
 10
-31.3963
 20
-27.2984
 11
-31.5242
 21
-27.6693
  0
LINE
  8
0
 10
-31.5242
 20
-27.6693
 11
-31.7084
 21
-28.0156
  0
LINE
  8
0
 10
-31.7084
 20
-28.0156
 11
-31.9446
 21
-28.3289
  0
LINE
  8
0
 10
-31.9446
 20
-28.3289
 11
-32.2269
 21
-28.6013
  0
LINE
  8
0
 10
-32.2269
 20
-28.6013
 11
-32.5483
 21
-28.8262
  0
LINE
  8
0
 10
-32.5483
 20
-28.8262
 11
-32.9009
 21
-28.9981
  0
LINE
  8
0
 10
-32.9009
 20
-28.9981
 11
-33.2761
 21
-29.1127
  0
LINE
  8
0
 10
-33.2761
 20
-29.1127
 11
-33.6646
 21
-29.1672
  0
LINE
  8
0
 10
-33.6646
 20
-29.1672
 11
-34.0568
 21
-29.1602
  0
LINE
  8
0
 10
-12.8977
 20
1.12662
 11
-12.9837
 21
1.1389
  0
LINE
  8
0
 10
-12.9837
 20
1.1389
 11
-13.0679
 21
1.16144
  0
LINE
  8
0
 10
-13.0679
 20
1.16144
 11
-13.1505
 21
1.18851
  0
LINE
  8
0
 10
-13.1505
 20
1.18851
 11
-13.2294
 21
1.22528
  0
LINE
  8
0
 10
-13.2294
 20
1.22528
 11
-13.3061
 21
1.26628
  0
LINE
  8
0
 10
-13.3061
 20
1.26628
 11
-13.3775
 21
1.3163
  0
LINE
  8
0
 10
-13.3775
 20
1.3163
 11
-13.4458
 21
1.36992
  0
LINE
  8
0
 10
-13.4458
 20
1.36992
 11
-13.5073
 21
1.43143
  0
LINE
  8
0
 10
-13.5073
 20
1.43143
 11
-13.5655
 21
1.49632
  0
LINE
  8
0
 10
-13.5655
 20
1.49632
 11
-13.6153
 21
1.56749
  0
LINE
  8
0
 10
-13.6153
 20
1.56749
 11
-13.6613
 21
1.64142
  0
LINE
  8
0
 10
-13.6613
 20
1.64142
 11
-13.6981
 21
1.72031
  0
LINE
  8
0
 10
-13.6981
 20
1.72031
 11
-13.7305
 21
1.80109
  0
LINE
  8
0
 10
-13.7305
 20
1.80109
 11
-13.753
 21
1.88503
  0
LINE
  8
0
 10
-13.753
 20
1.88503
 11
-13.7709
 21
1.97026
  0
LINE
  8
0
 10
-13.7709
 20
1.97026
 11
-13.7785
 21
2.05704
  0
LINE
  8
0
 10
-13.7785
 20
2.05704
 11
-13.7813
 21
2.14381
  0
LINE
  8
0
 10
-13.7813
 20
2.14381
 11
-13.7737
 21
2.23065
  0
LINE
  8
0
 10
-13.7737
 20
2.23065
 11
-13.7614
 21
2.31673
  0
LINE
  8
0
 10
-13.7614
 20
2.31673
 11
-13.7389
 21
2.40074
  0
LINE
  8
0
 10
-13.7389
 20
2.40074
 11
-13.7118
 21
2.48347
  0
LINE
  8
0
 10
-13.7118
 20
2.48347
 11
-13.6751
 21
2.56229
  0
LINE
  8
0
 10
-13.6751
 20
2.56229
 11
-13.634
 21
2.63907
  0
LINE
  8
0
 10
-13.634
 20
2.63907
 11
-13.5842
 21
2.71025
  0
LINE
  8
0
 10
-13.5842
 20
2.71025
 11
-13.5304
 21
2.77879
  0
LINE
  8
0
 10
-13.5304
 20
2.77879
 11
-13.4689
 21
2.84026
  0
LINE
  8
0
 10
-13.4689
 20
2.84026
 11
-13.4041
 21
2.89839
  0
LINE
  8
0
 10
-13.4041
 20
2.89839
 11
-13.3328
 21
2.9483
  0
LINE
  8
0
 10
-13.3328
 20
2.9483
 11
-13.2589
 21
2.99422
  0
LINE
  8
0
 10
-13.2589
 20
2.99422
 11
-13.18
 21
3.03102
  0
LINE
  8
0
 10
-13.18
 20
3.03102
 11
-13.0993
 21
3.06342
  0
LINE
  8
0
 10
-13.0993
 20
3.06342
 11
-13.0151
 21
3.08597
  0
LINE
  8
0
 10
-13.0151
 20
3.08597
 11
-12.9302
 21
3.10382
  0
LINE
  8
0
 10
-12.9302
 20
3.10382
 11
-12.8433
 21
3.11142
  0
LINE
  8
0
 10
-12.8433
 20
3.11142
 11
-12.7564
 21
3.11426
  0
LINE
  8
0
 10
-12.7564
 20
3.11426
 11
-12.6697
 21
3.10666
  0
LINE
  8
0
 10
-12.6697
 20
3.10666
 11
-12.5837
 21
3.09438
  0
LINE
  8
0
 10
-12.5837
 20
3.09438
 11
-12.4995
 21
3.07184
  0
LINE
  8
0
 10
-12.4995
 20
3.07184
 11
-12.4169
 21
3.04475
  0
LINE
  8
0
 10
-12.4169
 20
3.04475
 11
-12.3381
 21
3.00803
  0
LINE
  8
0
 10
-12.3381
 20
3.00803
 11
-12.2613
 21
2.96696
  0
LINE
  8
0
 10
-12.2613
 20
2.96696
 11
-12.19
 21
2.9171
  0
LINE
  8
0
 10
-12.19
 20
2.9171
 11
-12.1215
 21
2.86331
  0
LINE
  8
0
 10
-12.1215
 20
2.86331
 11
-12.0601
 21
2.80185
  0
LINE
  8
0
 10
-12.0601
 20
2.80185
 11
-12.002
 21
2.73701
  0
LINE
  8
0
 10
-12.002
 20
2.73701
 11
-11.952
 21
2.66571
  0
LINE
  8
0
 10
-11.952
 20
2.66571
 11
-11.9061
 21
2.59187
  0
LINE
  8
0
 10
-11.9061
 20
2.59187
 11
-11.8693
 21
2.51294
  0
LINE
  8
0
 10
-11.8693
 20
2.51294
 11
-11.8369
 21
2.43224
  0
LINE
  8
0
 10
-11.8369
 20
2.43224
 11
-11.8144
 21
2.34821
  0
LINE
  8
0
 10
-11.8144
 20
2.34821
 11
-11.7965
 21
2.263
  0
LINE
  8
0
 10
-11.7965
 20
2.263
 11
-11.7889
 21
2.17642
  0
LINE
  8
0
 10
-11.7889
 20
2.17642
 11
-11.7861
 21
2.08936
  0
LINE
  8
0
 10
-11.7861
 20
2.08936
 11
-11.7937
 21
2.00275
  0
LINE
  8
0
 10
-11.7937
 20
2.00275
 11
-11.806
 21
1.91653
  0
LINE
  8
0
 10
-11.806
 20
1.91653
 11
-11.8285
 21
1.83258
  0
LINE
  8
0
 10
-11.8285
 20
1.83258
 11
-11.8556
 21
1.74979
  0
LINE
  8
0
 10
-11.8556
 20
1.74979
 11
-11.8923
 21
1.67099
  0
LINE
  8
0
 10
-11.8923
 20
1.67099
 11
-11.9334
 21
1.59421
  0
LINE
  8
0
 10
-11.9334
 20
1.59421
 11
-11.9832
 21
1.52303
  0
LINE
  8
0
 10
-11.9832
 20
1.52303
 11
-12.037
 21
1.45448
  0
LINE
  8
0
 10
-12.037
 20
1.45448
 11
-12.0986
 21
1.39293
  0
LINE
  8
0
 10
-12.0986
 20
1.39293
 11
-12.1633
 21
1.33493
  0
LINE
  8
0
 10
-12.1633
 20
1.33493
 11
-12.2345
 21
1.28503
  0
LINE
  8
0
 10
-12.2345
 20
1.28503
 11
-12.3086
 21
1.239
  0
LINE
  8
0
 10
-12.3086
 20
1.239
 11
-12.3872
 21
1.20235
  0
LINE
  8
0
 10
-12.3872
 20
1.20235
 11
-12.4681
 21
1.16986
  0
LINE
  8
0
 10
-12.4681
 20
1.16986
 11
-12.5522
 21
1.14734
  0
LINE
  8
0
 10
-12.5522
 20
1.14734
 11
-12.6373
 21
1.12946
  0
LINE
  8
0
 10
-12.6373
 20
1.12946
 11
-12.7239
 21
1.12187
  0
LINE
  8
0
 10
-12.7239
 20
1.12187
 11
-12.811
 21
1.11902
  0
LINE
  8
0
 10
-12.811
 20
1.11902
 11
-12.8977
 21
1.12662
  0
ENDSEC
  0
SECTION
  2
OBJECTS
  0
DICTIONARY
  0
ENDSEC
  0
EOF
